<svg width="256" height="256" xmlns="http://www.w3.org/2000/svg"><defs><linearGradient x1="50%" y1="0%" x2="50%" y2="100%" id="a"><stop stop-color="#FFC988" offset="0%"/><stop stop-color="#E288F9" offset="100%"/></linearGradient></defs><g fill="none" fill-rule="evenodd"><path fill="url(#a)" d="M0 0h256v256H0z"/><path d="M206 189c-3-8-17-14-40-18-2-1-15-6-18-16-2-4-1-9 3-14 2-2 18-16 27-28 2-3 4-8 3-12-1-5-4-9-8-12l-32-19-9-19-3-2h-2l-3 2-9 19-32 19c-4 3-7 7-8 12-1 4 1 9 3 12 9 12 25 26 27 28 4 5 5 10 3 14-3 10-16 15-18 16-23 4-37 10-40 18-2 4-1 7 0 8 3 6 10 10 21 10a96 96 0 0037-8l19-6h2l19 6 15 5c6 1 14 3 22 3 11 0 18-4 21-10 1-1 2-4 0-8zm-78-61c-11 0-17-15-17-23a17 17 0 0133 0c0 8-6 23-16 23z" fill="#FFF" fill-rule="nonzero"/></g></svg>