<svg width="303" height="100" xmlns="http://www.w3.org/2000/svg"><defs><linearGradient x1="50%" y1="0%" x2="50%" y2="100%" id="a"><stop stop-color="#FFC988" offset="0%"/><stop stop-color="#E288F9" offset="100%"/></linearGradient></defs><g fill="none" fill-rule="evenodd"><path d="M19 0h62c6 0 9 1 11 2 3 1 5 3 6 6 1 2 2 5 2 11v62c0 6-1 9-2 11-1 3-3 5-6 6-2 1-5 2-11 2H19c-6 0-9-1-11-2-3-1-5-3-6-6-1-2-2-5-2-11V19c0-6 1-9 2-11 1-3 3-5 6-6 2-1 5-2 11-2z" fill="url(#a)"/><path d="M81 74c-2-3-7-6-16-7-1 0-6-3-7-6-1-2 0-4 1-6 1-1 7-6 10-11 2-1 2-3 2-5l-3-4-13-8-3-7-2-1-2 1-3 7-13 8-3 4c0 2 0 4 2 5 3 5 9 10 10 11 1 2 2 4 1 6-1 3-6 6-7 6-9 1-14 4-16 7v3c1 3 4 4 9 4a38 38 0 0014-3l8-2 8 2 6 2 8 1c5 0 8-1 9-4v-3zM50 50c-4 0-7-6-7-9 0-4 3-7 7-7 3 0 6 3 6 7 0 3-3 9-6 9z" fill="#FFF" fill-rule="nonzero"/><path d="M146 55l-20-30h10l14 22 14-22h10l-20 29v20h-8V55zm47 12a11 11 0 008-3l3-4v-4a13 13 0 00-3-9 11 11 0 00-16 0l-2 4-1 4v1a12 12 0 003 8 11 11 0 008 3zm0 8a20 20 0 01-14-6 19 19 0 01-6-13 19 19 0 016-14 20 20 0 0114-6 20 20 0 0114 6 19 19 0 016 13v1a19 19 0 01-6 13 19 19 0 01-14 6zm47-11l4-1a10 10 0 006-5v-4a10 10 0 00-3-8l-3-2a12 12 0 00-9 0l-3 2-2 3-1 5a10 10 0 006 9l5 1zm-1 21c-6 0-12-1-17-4l4-6 6 2 7 1c3 0 6 0 8-2s3-5 3-9v-3l-5 5-8 2a17 17 0 01-11-5l-4-5-1-7 1-8a16 16 0 019-9 17 17 0 0114 1l5 5v-6h9v29c0 7-2 11-5 14l-6 4-9 1zm55-26a22 22 0 00-9-2l-6 2c-2 1-2 2-2 4s0 3 2 4l5 1h4l3-2 2-2 1-3v-2zm-1 15v-5l-4 4-8 2-5-1-4-2a11 11 0 01-4-9l1-5 3-4 5-2 6-1a33 33 0 0110 2v-1c0-3 0-5-2-6l-7-2-5 1-5 1-3-6 7-3 8-1c5 0 9 2 12 5 2 2 4 6 4 11v22h-9z" fill="#29000D" fill-rule="nonzero"/></g></svg>